HIERARCHY
ROOT pelvis
{
    OFFSET 0.0 56.464820861816406 0.0
    CHANNELS 6 Xposition Yposition Zposition Zrotation Yrotation Xrotation

    JOINT left_hip
    {
        OFFSET -8.257698059082031 -2.6090316772460938 5.060593128204346
        CHANNELS 3 Zrotation Yrotation Xrotation

        JOINT left_knee
        {
            OFFSET -15.292411804199219 -19.670181274414062 28.814220428466797
            CHANNELS 3 Zrotation Yrotation Xrotation

            JOINT left_ankle
            {
                OFFSET 15.512150764465332 -30.335874557495117 -27.147720336914062
                CHANNELS 3 Zrotation Yrotation Xrotation

                JOINT left_foot
                {
                    OFFSET -5.84892463684082 -2.205204963684082 10.980769157409668
                    CHANNELS 3 Zrotation Yrotation Xrotation

                    End Site
                    {
                        OFFSET 0 0 0
                    }
                }
            }
        }
    }

    JOINT right_hip
    {
        OFFSET 7.162100791931152 -4.6716766357421875 2.866680383682251
        CHANNELS 3 Zrotation Yrotation Xrotation

        JOINT right_knee
        {
            OFFSET 26.17706298828125 -17.201480865478516 24.08510398864746
            CHANNELS 3 Zrotation Yrotation Xrotation

            JOINT right_ankle
            {
                OFFSET -2.982858657836914 -34.73192596435547 -19.743410110473633
                CHANNELS 3 Zrotation Yrotation Xrotation

                JOINT right_foot
                {
                    OFFSET 7.301294326782227 -0.5957959294319153 14.237251281738281
                    CHANNELS 3 Zrotation Yrotation Xrotation

                    End Site
                    {
                        OFFSET 0 0 0
                    }
                }
            }
        }
    }

    JOINT spine1
    {
        OFFSET 0.9117291569709778 12.600105285644531 -10.51693344116211
        CHANNELS 3 Zrotation Yrotation Xrotation

        JOINT spine2
        {
            OFFSET 2.4269285202026367 5.3697662353515625 12.69820499420166
            CHANNELS 3 Zrotation Yrotation Xrotation

            JOINT spine3
            {
                OFFSET 0.2555370330810547 4.1256561279296875 3.7894155979156494
                CHANNELS 3 Zrotation Yrotation Xrotation

                JOINT left_collar
                {
                    OFFSET -8.87203598022461 8.361053466796875 0.7742996215820312
                    CHANNELS 3 Zrotation Yrotation Xrotation

                    JOINT left_shoulder
                    {
                        OFFSET -12.478279113769531 0.123504638671875 3.1225452423095703
                        CHANNELS 3 Zrotation Yrotation Xrotation

                        JOINT left_elbow
                        {
                            OFFSET -10.826982498168945 -22.111282348632812 -0.3900566101074219
                            CHANNELS 3 Zrotation Yrotation Xrotation

                            JOINT left_wrist
                            {
                                OFFSET 13.591780662536621 -10.95809555053711 20.644866943359375
                                CHANNELS 3 Zrotation Yrotation Xrotation

                                End Site
                                {
                                    OFFSET 0 0 0
                                }
                            }
                        }
                    }
                }

                JOINT right_collar
                {
                    OFFSET 7.422041893005371 9.68084716796875 1.1243457794189453
                    CHANNELS 3 Zrotation Yrotation Xrotation

                    JOINT right_shoulder
                    {
                        OFFSET 12.365078926086426 1.4269485473632812 1.2096672058105469
                        CHANNELS 3 Zrotation Yrotation Xrotation

                        JOINT right_elbow
                        {
                            OFFSET 6.520437240600586 -22.95618438720703 4.788490295410156
                            CHANNELS 3 Zrotation Yrotation Xrotation

                            JOINT right_wrist
                            {
                                OFFSET -12.17474365234375 -18.731842041015625 14.040667533874512
                                CHANNELS 3 Zrotation Yrotation Xrotation

                                End Site
                                {
                                    OFFSET 0 0 0
                                }
                            }
                        }
                    }
                }

                JOINT neck
                {
                    OFFSET -2.2460601329803467 20.895240783691406 -0.32430410385131836
                    CHANNELS 3 Zrotation Yrotation Xrotation

                    JOINT head
                    {
                        OFFSET 4.680004119873047 13.525062561035156 3.014340877532959
                        CHANNELS 3 Zrotation Yrotation Xrotation

                        End Site
                        {
                            OFFSET 0 0 0
                        }
                    }
                }
            }
        }
    }

}

MOTION
Frames: 10
Frame Time: 0.050000
0.000000 56.464821 0.000000 0.000000 0.000000 0.000000 0.000000 0.000000 0.000000 0.000000 0.000000 0.000000 0.000000 0.000000 0.000000 0.000000 0.000000 0.000000 0.000000 0.000000 0.000000 0.000000 0.000000 0.000000 0.000000 0.000000 0.000000 0.000000 0.000000 0.000000 0.000000 0.000000 0.000000 0.000000 0.000000 0.000000 0.000000 0.000000 0.000000 0.000000 0.000000 0.000000 0.000000 0.000000 0.000000 0.000000 0.000000 0.000000 0.000000 0.000000 0.000000 0.000000 0.000000 0.000000 0.000000 0.000000 0.000000 0.000000 0.000000 0.000000 0.000000 0.000000 0.000000 0.000000 0.000000 0.000000 0.000000 0.000000 0.000000
-0.017728 56.411617 -0.001995 0.000000 0.000000 -0.000000 -0.095144 -0.041079 0.004858 -0.013118 0.134675 0.035338 0.338208 -0.040676 -0.107910 0.000000 0.000000 -0.000000 0.167345 0.122562 0.017934 0.057968 -0.085109 -0.216554 -0.053681 0.140723 -0.239668 0.000000 0.000000 -0.000000 -0.181993 0.052325 0.018388 0.361166 -0.188658 -0.007768 0.000000 0.000000 -0.000000 0.207650 -0.134946 -0.160671 0.155828 0.053651 0.343648 0.689075 0.046884 0.429639 0.000000 0.000000 -0.000000 -0.083904 -0.118125 -0.090292 -0.044979 -0.182341 0.252533 0.304966 -0.041410 -0.048227 0.000000 0.000000 -0.000000 -0.121686 0.169230 0.188603 0.000000 0.000000 -0.000000
-0.041163 56.492554 0.002033 0.000000 0.000000 -0.000000 -0.244781 0.084711 0.258249 -0.280080 0.138014 -0.006450 0.543131 -0.162166 -0.071964 0.000000 0.000000 -0.000000 0.123508 0.035669 0.049355 0.178885 0.088470 -0.440385 0.190855 0.169612 -0.384225 0.000000 0.000000 -0.000000 -0.793459 0.218053 0.059694 0.815004 -0.495906 -0.026557 0.000000 0.000000 -0.000000 0.437956 -0.292971 -0.338557 0.331319 0.043632 0.593755 1.757390 -0.130782 1.051437 0.000000 0.000000 -0.000000 0.030676 -0.269844 -0.003037 -0.016994 -0.366230 0.192349 0.093330 -0.100177 0.234377 0.000000 0.000000 -0.000000 -0.239452 0.321268 0.339434 0.000000 0.000000 -0.000000
-0.069021 56.574375 0.013380 0.000000 0.000000 -0.000000 -0.277157 0.159623 0.374708 -0.428697 0.017790 -0.041231 0.183304 -0.264036 0.072087 0.000000 0.000000 -0.000000 0.117540 -0.108263 0.140541 0.277754 0.098350 -0.639763 0.725464 0.152793 -0.366755 0.000000 0.000000 -0.000000 -1.635857 0.417204 0.054096 1.121785 -0.797246 0.038733 0.000000 0.000000 -0.000000 0.519918 -0.615459 -0.398677 0.512481 -0.077604 0.713536 2.940285 -0.344850 1.640820 0.000000 0.000000 -0.000000 0.183224 -0.485720 0.111655 0.062172 -0.586018 0.099345 0.049293 -0.101135 0.464632 0.000000 0.000000 -0.000000 -0.361972 0.442659 0.389880 0.000000 0.000000 -0.000000
-0.097697 56.656914 0.032376 0.000000 0.000000 -0.000000 -0.143513 0.196949 0.340842 -0.400114 -0.175221 -0.105529 -0.304177 -0.292525 0.159721 0.000000 0.000000 -0.000000 0.149654 -0.272181 0.267263 0.362173 -0.001011 -0.799031 1.283369 0.089328 -0.260616 0.000000 0.000000 -0.000000 -2.493689 0.609091 0.025565 1.435665 -1.108772 0.157605 0.000000 0.000000 -0.000000 0.581988 -0.981507 -0.442609 0.755867 -0.135153 0.877140 3.353245 -0.636247 2.001359 0.000000 0.000000 -0.000000 0.261619 -0.718076 0.156835 0.176505 -0.794197 0.167023 0.366942 -0.002779 0.596916 0.000000 0.000000 -0.000000 -0.466885 0.555790 0.461074 0.000000 0.000000 -0.000000
-0.126970 56.756527 0.059406 0.000000 0.000000 -0.000000 0.005761 0.312486 0.397746 -0.410685 -0.381254 -0.152722 -0.716242 -0.265577 0.337831 0.000000 0.000000 -0.000000 0.099468 -0.438370 0.346480 0.423080 0.006533 -0.899122 1.784029 -0.005060 -0.147008 0.000000 0.000000 -0.000000 -3.221267 0.784896 0.034140 1.680209 -1.347308 0.276765 0.000000 0.000000 -0.000000 0.655329 -1.287968 -0.495845 0.979506 -0.136838 1.092961 3.233054 -0.989317 2.253979 0.000000 0.000000 -0.000000 0.313351 -0.943421 0.178568 0.302116 -0.994291 0.322949 0.882772 0.167064 0.708793 0.000000 0.000000 -0.000000 -0.503389 0.602439 0.507796 0.000000 0.000000 -0.000000
-0.156173 56.814938 0.095487 0.000000 0.000000 -0.000000 0.126112 0.426116 0.469393 -0.412259 -0.561374 -0.073510 -0.712642 -0.240971 0.536739 0.000000 0.000000 -0.000000 0.062297 -0.560813 0.404520 0.448981 -0.012943 -0.900190 2.119217 -0.065862 0.004207 0.000000 0.000000 -0.000000 -4.092013 1.018442 0.104599 2.031126 -1.627770 0.453747 0.000000 0.000000 -0.000000 0.728704 -1.545882 -0.549552 1.169824 -0.110995 1.339275 3.065772 -1.284323 2.506377 0.000000 0.000000 -0.000000 0.310615 -1.118027 0.156325 0.403631 -1.138837 0.511815 1.271742 0.314086 0.856075 0.000000 0.000000 -0.000000 -0.532249 0.630615 0.518883 0.000000 0.000000 -0.000000
-0.183051 56.884499 0.140862 0.000000 0.000000 -0.000000 0.213729 0.521810 0.537767 -0.441301 -0.742108 -0.010244 -0.690092 -0.178544 0.724103 0.000000 0.000000 -0.000000 0.003812 -0.710404 0.467397 0.492239 0.006918 -0.895173 2.223834 -0.117259 0.109888 0.000000 0.000000 -0.000000 -4.845498 1.214246 0.155058 2.291370 -1.850451 0.629227 0.000000 0.000000 -0.000000 0.790880 -1.735585 -0.595321 1.349128 -0.021829 1.579941 2.608036 -1.626268 2.712996 0.000000 0.000000 -0.000000 0.258324 -1.290766 0.089001 0.586087 -1.195282 0.753076 1.574546 0.388243 0.959173 0.000000 0.000000 -0.000000 -0.535436 0.628630 0.504886 0.000000 0.000000 -0.000000
-0.208397 56.971710 0.194886 0.000000 0.000000 -0.000000 0.477675 0.711761 0.617104 -0.428962 -1.133139 0.030899 -0.563947 -0.103677 0.933619 0.000000 0.000000 -0.000000 -0.149447 -0.915107 0.509244 0.538442 0.147316 -0.826506 2.015057 -0.165113 0.186826 0.000000 0.000000 -0.000000 -5.599007 1.407523 0.203494 2.531763 -2.056275 0.850081 0.000000 0.000000 -0.000000 0.852593 -1.899705 -0.640981 1.516518 0.087959 1.833482 2.060284 -1.985521 2.920310 0.000000 0.000000 -0.000000 0.168223 -1.478197 -0.014571 0.777286 -1.231579 0.981661 1.760984 0.448624 1.092620 0.000000 0.000000 -0.000000 -0.571199 0.656002 0.496096 0.000000 0.000000 -0.000000
-0.233866 57.030888 0.256114 0.000000 0.000000 -0.000000 0.696228 0.873917 0.687818 -0.430125 -1.500436 0.100356 -0.318767 -0.022740 1.126814 0.000000 0.000000 -0.000000 -0.267930 -1.083036 0.547377 0.561478 0.231147 -0.719903 1.685756 -0.175127 0.263712 0.000000 0.000000 -0.000000 -6.203362 1.547738 0.207032 2.731954 -2.231202 1.064777 0.000000 0.000000 -0.000000 0.901473 -2.042595 -0.676919 1.665321 0.192261 2.054522 1.446880 -2.326979 3.057921 0.000000 0.000000 -0.000000 0.084809 -1.626662 -0.107645 0.946122 -1.240391 1.174853 1.872479 0.477719 1.202013 0.000000 0.000000 -0.000000 -0.587218 0.675548 0.513969 0.000000 0.000000 -0.000000
